<svg width="195" height="41" viewBox="0 0 195 41" fill="none" xmlns="http://www.w3.org/2000/svg">
<path d="M191.789 13.0019V7.99451H189.24V5.49081H186.691V2.9871H181.593V0.483398H13.0658V2.9871H7.96763V5.49081H5.41852V7.99451H2.86942V13.0019H0.320312V28.0241H2.86942V33.0315H5.41852V35.5352H7.96763V38.039H13.0658V40.5427H181.593V38.039H186.691V35.5352H189.24V33.0315H191.789V28.0241H194.339V13.0019H191.789Z" fill="#454545"/>
<path d="M191.789 13.0019V7.99451H189.24V5.49081H186.691V2.9871H181.593V0.483398H13.0658V2.9871H7.96763V5.49081H5.41852V7.99451H2.86942V13.0019H0.320312V28.0241H2.86942V33.0315H5.41852V35.5352H7.96763V38.039H13.0658V40.5427H181.593V38.039H186.691V35.5352H189.24V33.0315H191.789V28.0241H194.339V13.0019H191.789Z" fill="white"/>
<path d="M189.242 13.0021V7.99471H186.693V5.49101H181.595V2.9873H13.0675V5.49101H7.9693V7.99471H5.4202V13.0021H2.87109V28.0243H5.4202V33.0317H7.9693V35.5354H13.0675V38.0392H181.595V35.5354H186.693V33.0317H189.242V28.0243H191.791V13.0021H189.242Z" fill="#FF61B0"/>
<path d="M189.242 25.5206V28.0243H186.693V30.528H184.144V33.0317H10.5184V30.528H7.9693V28.0243H5.4202V25.5206H2.87109V28.0243H5.4202V33.0317H7.9693V35.5354H13.0675V38.0391H181.595V35.5354H186.693V33.0317H189.242V28.0243H191.791V25.5206H189.242Z" fill="#F599D2"/>
<path d="M10.5179 5.49121V7.99491H7.96875V13.0023H10.5179V10.4986H15.6161V7.99491H181.594V5.49121H10.5179Z" fill="#FF8AC5"/>
<path d="M10.5179 5.49121V7.99491H7.96875V10.4986H13.067V7.99491H15.6161V5.49121H10.5179Z" fill="white"/>
</svg>
