<svg width="24" height="24" viewBox="0 0 24 24" fill="none" xmlns="http://www.w3.org/2000/svg">
<circle cx="12" cy="12" r="11" fill="#5A63FF"/>
<path d="M5 15.0541C5 13.2299 5 12.3178 5.37424 11.5674C5.54246 11.2301 5.76318 10.9217 6.02813 10.6536C6.61762 10.0572 7.48089 9.76281 9.20742 9.17409L12.6061 8.01519C15.08 7.17164 16.3169 6.74989 17.2396 7.22111C17.4564 7.33185 17.6554 7.4743 17.8302 7.64375C18.574 8.365 18.574 9.67183 18.574 12.2855C18.574 14.0953 18.574 15.0002 18.1565 15.7232C18.0552 15.8985 17.9372 16.0635 17.8039 16.2158C17.2543 16.8444 16.3979 17.1364 14.685 17.7205L10.6494 19.0965C8.47136 19.8392 7.38233 20.2106 6.54259 19.8764C5.46664 19.4481 5 18.4527 5 17.596C5 17.0175 5 15.9515 5 15.0541Z" fill="url(#paint0_linear_2_2)"/>
<path d="M5 10.7519C5 9.29085 5 8.09305 5.24288 7.46961C5.45738 6.91903 5.80556 6.43048 6.25602 6.04804C6.76604 5.61498 7.45656 5.37661 8.8376 4.8998L9.31366 4.73545C10.9174 4.18179 11.7192 3.90497 12.363 4.02944C13.0597 4.16416 13.6636 4.59457 14.0183 5.20915C14.346 5.77702 14.346 7.07039 14.346 8.76699C14.346 10.1056 14.346 10.775 14.1415 11.3521C13.9192 11.9794 13.5254 12.5319 13.005 12.9468C12.5273 13.3275 11.8965 13.5458 10.6369 13.9807C10.6336 13.9818 10.6303 13.9829 10.6303 13.9829L10.6261 13.9844C10.6261 13.9844 10.6231 13.9854 10.6202 13.9864C10.4757 14.0358 8.40135 14.7448 7.09172 15.2025C5.73432 15.6768 5 16.6283 5 17.618V10.7519Z" fill="white"/>
<path d="M5 15.0542V17.5962C5 17.5999 5 17.6037 5.00003 17.6075C5.00516 16.6215 5.73908 15.6751 7.09172 15.2024C8.40135 14.7448 10.4757 14.0357 10.6202 13.9863L10.6261 13.9843L10.6303 13.9829L10.6369 13.9806C11.8965 13.5458 12.5273 13.3275 13.005 12.9467C13.5254 12.5318 13.9192 11.9793 14.1415 11.352C14.346 10.7749 14.346 10.1056 14.346 8.76691C14.346 8.29019 14.346 7.84534 14.3388 7.43945C13.8375 7.59546 13.2658 7.79039 12.6061 8.01535L9.20742 9.17425C7.48089 9.76297 6.61762 10.0573 6.02813 10.6538C5.76318 10.9218 5.54246 11.2303 5.37424 11.5675C5 12.318 5 13.2301 5 15.0542Z" fill="white"/>
<defs>
<linearGradient id="paint0_linear_2_2" x1="18" y1="16" x2="10" y2="11.5" gradientUnits="userSpaceOnUse">
<stop stop-color="#F6F8F8"/>
<stop offset="1" stop-color="#A3A7FF"/>
</linearGradient>
</defs>
</svg>
