<svg width="24" height="23" viewBox="0 0 24 23" fill="none" xmlns="http://www.w3.org/2000/svg">
<g clip-path="url(#clip0_1561_11882)">
<path d="M22.7841 0.0234375L13.4375 6.91895L15.1663 2.85056L22.7841 0.0234375Z" fill="#E2761B" stroke="#E2761B" stroke-linecap="round" stroke-linejoin="round"/>
<path d="M1.20703 0.0234375L10.4785 6.98421L8.83431 2.85056L1.20703 0.0234375Z" fill="#E4761B" stroke="#E4761B" stroke-linecap="round" stroke-linejoin="round"/>
<path d="M19.4189 16.0073L16.9297 19.7959L22.2559 21.2513L23.7871 16.0914L19.4189 16.0073Z" fill="#E4761B" stroke="#E4761B" stroke-linecap="round" stroke-linejoin="round"/>
<path d="M0.222656 16.0914L1.74443 21.2513L7.07062 19.7959L4.58144 16.0073L0.222656 16.0914Z" fill="#E4761B" stroke="#E4761B" stroke-linecap="round" stroke-linejoin="round"/>
<path d="M6.76959 9.60637L5.28516 11.8368L10.5735 12.0701L10.3859 6.4248L6.76959 9.60637Z" fill="#E4761B" stroke="#E4761B" stroke-linecap="round" stroke-linejoin="round"/>
<path d="M17.223 9.6062L13.5599 6.35938L13.4375 12.07L18.7169 11.8366L17.223 9.6062Z" fill="#E4761B" stroke="#E4761B" stroke-linecap="round" stroke-linejoin="round"/>
<path d="M7.07031 19.7959L10.2452 18.256L7.50227 16.1284L7.07031 19.7959Z" fill="#E4761B" stroke="#E4761B" stroke-linecap="round" stroke-linejoin="round"/>
<path d="M13.7461 18.256L16.9305 19.7959L16.4891 16.1284L13.7461 18.256Z" fill="#E4761B" stroke="#E4761B" stroke-linecap="round" stroke-linejoin="round"/>
<path d="M16.9305 19.7962L13.7461 18.2563L13.9999 20.3187L13.9715 21.1863L16.9305 19.7962Z" fill="#D7C1B3" stroke="#D7C1B3" stroke-linecap="round" stroke-linejoin="round"/>
<path d="M7.07031 19.7962L10.0293 21.1863L10.0104 20.3187L10.2452 18.2563L7.07031 19.7962Z" fill="#D7C1B3" stroke="#D7C1B3" stroke-linecap="round" stroke-linejoin="round"/>
<path d="M10.0747 14.7665L7.42578 13.9918L9.29491 13.1426L10.0747 14.7665Z" fill="#233447" stroke="#233447" stroke-linecap="round" stroke-linejoin="round"/>
<path d="M13.918 14.7665L14.6978 13.1426L16.5763 13.9918L13.918 14.7665Z" fill="#233447" stroke="#233447" stroke-linecap="round" stroke-linejoin="round"/>
<path d="M7.0673 19.7959L7.51816 16.0073L4.57812 16.0914L7.0673 19.7959Z" fill="#CD6116" stroke="#CD6116" stroke-linecap="round" stroke-linejoin="round"/>
<path d="M16.4805 16.0073L16.9313 19.7959L19.4205 16.0914L16.4805 16.0073Z" fill="#CD6116" stroke="#CD6116" stroke-linecap="round" stroke-linejoin="round"/>
<path d="M18.7169 11.8364L13.4375 12.0698L13.9262 14.7664L14.706 13.1425L16.5845 13.9917L18.7169 11.8364Z" fill="#CD6116" stroke="#CD6116" stroke-linecap="round" stroke-linejoin="round"/>
<path d="M7.42698 13.9917L9.30556 13.1425L10.0759 14.7664L10.5735 12.0698L5.28516 11.8364L7.42698 13.9917Z" fill="#CD6116" stroke="#CD6116" stroke-linecap="round" stroke-linejoin="round"/>
<path d="M5.28516 11.8364L7.50212 16.1283L7.42698 13.9917L5.28516 11.8364Z" fill="#E4751F" stroke="#E4751F" stroke-linecap="round" stroke-linejoin="round"/>
<path d="M16.5823 13.9917L16.4883 16.1283L18.7147 11.8364L16.5823 13.9917Z" fill="#E4751F" stroke="#E4751F" stroke-linecap="round" stroke-linejoin="round"/>
<path d="M10.5719 12.0698L10.0742 14.7664L10.6943 17.948L10.8351 13.7585L10.5719 12.0698Z" fill="#E4751F" stroke="#E4751F" stroke-linecap="round" stroke-linejoin="round"/>
<path d="M13.4369 12.0698L13.1836 13.7491L13.2961 17.948L13.9256 14.7664L13.4369 12.0698Z" fill="#E4751F" stroke="#E4751F" stroke-linecap="round" stroke-linejoin="round"/>
<path d="M13.9264 14.7668L13.2969 17.9484L13.7477 18.2563L16.4907 16.1287L16.5847 13.9922L13.9264 14.7668Z" fill="#F6851B" stroke="#F6851B" stroke-linecap="round" stroke-linejoin="round"/>
<path d="M7.42578 13.9922L7.50093 16.1287L10.2439 18.2563L10.6947 17.9484L10.0747 14.7668L7.42578 13.9922Z" fill="#F6851B" stroke="#F6851B" stroke-linecap="round" stroke-linejoin="round"/>
<path d="M13.974 21.186L14.0024 20.3184L13.7675 20.1128H10.2263L10.0104 20.3184L10.0293 21.186L7.07031 19.7959L8.10341 20.6353L10.198 22.0817H13.7959L15.8999 20.6353L16.933 19.7959L13.974 21.186Z" fill="#C0AD9E" stroke="#C0AD9E" stroke-linecap="round" stroke-linejoin="round"/>
<path d="M13.7461 18.2562L13.2952 17.9482H10.6936L10.2427 18.2562L10.0078 20.3186L10.2238 20.1129H13.765L13.9999 20.3186L13.7461 18.2562Z" fill="#161616" stroke="#161616" stroke-linecap="round" stroke-linejoin="round"/>
<path d="M23.1773 7.36682L23.9755 3.55992L22.7827 0.0234375L13.7461 6.68563L17.2216 9.60617L22.1343 11.0338L23.2241 9.77424L22.7543 9.43857L23.5057 8.75738L22.9235 8.30951L23.6749 7.74005L23.1773 7.36682Z" fill="#763D16" stroke="#763D16" stroke-linecap="round" stroke-linejoin="round"/>
<path d="M0.0234375 3.55992L0.821657 7.36682L0.314559 7.74005L1.06599 8.30951L0.493201 8.75738L1.24463 9.43857L0.77487 9.77424L1.85523 11.0338L6.7679 9.60617L10.2434 6.68563L1.20683 0.0234375L0.0234375 3.55992Z" fill="#763D16" stroke="#763D16" stroke-linecap="round" stroke-linejoin="round"/>
<path d="M22.1335 11.0341L17.2208 9.60645L18.7147 11.8369L16.4883 16.1287L19.4189 16.0916H23.7871L22.1335 11.0341Z" fill="#F6851B" stroke="#F6851B" stroke-linecap="round" stroke-linejoin="round"/>
<path d="M6.77004 9.60645L1.85738 11.0341L0.222656 16.0916H4.58144L7.50257 16.1287L5.28561 11.8369L6.77004 9.60645Z" fill="#F6851B" stroke="#F6851B" stroke-linecap="round" stroke-linejoin="round"/>
<path d="M13.4386 12.07L13.7486 6.68565L15.1768 2.85059H8.83594L10.2452 6.68565L10.5737 12.07L10.6866 13.768L10.6961 17.9481H13.2977L13.3166 13.768L13.4386 12.07Z" fill="#F6851B" stroke="#F6851B" stroke-linecap="round" stroke-linejoin="round"/>
</g>
<defs>
<clipPath id="clip0_1561_11882">
<rect width="24" height="22.1053" fill="white"/>
</clipPath>
</defs>
</svg>
