<svg width="18" height="18" viewBox="0 0 18 18" fill="none" xmlns="http://www.w3.org/2000/svg">
<path d="M8.81563 18.0004C13.6757 18.0004 17.6156 14.0605 17.6156 9.20039C17.6156 4.34028 13.6757 0.400391 8.81563 0.400391C3.95552 0.400391 0.015625 4.34028 0.015625 9.20039C0.015625 14.0605 3.95552 18.0004 8.81563 18.0004Z" fill="#F3BC36"/>
<path fill-rule="evenodd" clip-rule="evenodd" d="M6.58812 8.28179L8.81479 6.05409L11.0476 8.28692L12.3442 6.99034L8.81479 3.46094L5.29052 6.98418L6.58812 8.28179ZM3.07617 9.19955L4.37275 7.90298L5.66933 9.19955L4.37275 10.4961L3.07617 9.19955ZM6.58812 10.1235L8.81479 12.345L11.0476 10.1122L12.3442 11.4088L8.81479 14.9392L5.29052 11.4149L6.58812 10.1235ZM11.9602 9.19955L13.2568 7.90298L14.5544 9.19955L13.2568 10.4961L11.9602 9.19955ZM10.135 9.19955L8.81479 10.5136L7.50076 9.19955L7.72969 8.9696L7.84467 8.85565L8.81479 7.88552L10.135 9.19955Z" fill="white"/>
</svg>
